<mxfile host="app.diagrams.net" agent="Mozilla/5.0 (Windows NT 10.0; Win64; x64) AppleWebKit/537.36 (KHTML, like Gecko) Chrome/128.0.0.0 Safari/537.36 Edg/128.0.0.0" version="26.0.14" pages="2">
  <diagram name="Page-1" id="RkIxDyLgT-yvRPI5UW5b">
    <mxGraphModel dx="1420" dy="1103" grid="0" gridSize="10" guides="1" tooltips="1" connect="1" arrows="1" fold="1" page="0" pageScale="1" pageWidth="850" pageHeight="1100" math="0" shadow="0">
      <root>
        <mxCell id="0" />
        <mxCell id="1" parent="0" />
        <mxCell id="ow3ZpeoSUIflykY9rhfe-1" value="Siswa" style="whiteSpace=wrap;html=1;align=center;" vertex="1" parent="1">
          <mxGeometry x="-200" y="-40" width="88" height="44" as="geometry" />
        </mxCell>
        <mxCell id="ow3ZpeoSUIflykY9rhfe-2" value="Petugas" style="whiteSpace=wrap;html=1;align=center;" vertex="1" parent="1">
          <mxGeometry x="-194" y="243" width="100" height="40" as="geometry" />
        </mxCell>
        <mxCell id="ow3ZpeoSUIflykY9rhfe-3" value="Buku" style="whiteSpace=wrap;html=1;align=center;" vertex="1" parent="1">
          <mxGeometry x="290" y="-42" width="100" height="40" as="geometry" />
        </mxCell>
        <mxCell id="ow3ZpeoSUIflykY9rhfe-4" value="Meminjam" style="shape=rhombus;perimeter=rhombusPerimeter;whiteSpace=wrap;html=1;align=center;" vertex="1" parent="1">
          <mxGeometry x="22" y="-52" width="120" height="60" as="geometry" />
        </mxCell>
        <mxCell id="ow3ZpeoSUIflykY9rhfe-10" value="" style="endArrow=none;html=1;rounded=0;fontSize=12;startSize=8;endSize=8;curved=1;entryX=1;entryY=0.5;entryDx=0;entryDy=0;exitX=0;exitY=0.5;exitDx=0;exitDy=0;" edge="1" parent="1" source="ow3ZpeoSUIflykY9rhfe-4" target="ow3ZpeoSUIflykY9rhfe-1">
          <mxGeometry relative="1" as="geometry">
            <mxPoint x="44" y="-69" as="sourcePoint" />
            <mxPoint x="273" y="-75" as="targetPoint" />
          </mxGeometry>
        </mxCell>
        <mxCell id="ow3ZpeoSUIflykY9rhfe-11" value="N" style="resizable=0;html=1;whiteSpace=wrap;align=right;verticalAlign=bottom;" connectable="0" vertex="1" parent="ow3ZpeoSUIflykY9rhfe-10">
          <mxGeometry x="1" relative="1" as="geometry" />
        </mxCell>
        <mxCell id="ow3ZpeoSUIflykY9rhfe-15" value="" style="endArrow=none;html=1;rounded=0;fontSize=12;startSize=8;endSize=8;curved=1;entryX=0;entryY=0.5;entryDx=0;entryDy=0;exitX=1;exitY=0.5;exitDx=0;exitDy=0;" edge="1" parent="1" source="ow3ZpeoSUIflykY9rhfe-4" target="ow3ZpeoSUIflykY9rhfe-3">
          <mxGeometry relative="1" as="geometry">
            <mxPoint x="13" y="-101" as="sourcePoint" />
            <mxPoint x="173" y="-101" as="targetPoint" />
          </mxGeometry>
        </mxCell>
        <mxCell id="ow3ZpeoSUIflykY9rhfe-16" value="N" style="resizable=0;html=1;whiteSpace=wrap;align=right;verticalAlign=bottom;" connectable="0" vertex="1" parent="ow3ZpeoSUIflykY9rhfe-15">
          <mxGeometry x="1" relative="1" as="geometry" />
        </mxCell>
        <mxCell id="ow3ZpeoSUIflykY9rhfe-18" value="NIS" style="ellipse;whiteSpace=wrap;html=1;align=center;" vertex="1" parent="1">
          <mxGeometry x="-376" y="-62" width="100" height="40" as="geometry" />
        </mxCell>
        <mxCell id="ow3ZpeoSUIflykY9rhfe-19" value="Nama" style="ellipse;whiteSpace=wrap;html=1;align=center;" vertex="1" parent="1">
          <mxGeometry x="-334" y="-111" width="100" height="40" as="geometry" />
        </mxCell>
        <mxCell id="ow3ZpeoSUIflykY9rhfe-20" value="Kelas" style="ellipse;whiteSpace=wrap;html=1;align=center;" vertex="1" parent="1">
          <mxGeometry x="-253" y="-154" width="100" height="40" as="geometry" />
        </mxCell>
        <mxCell id="ow3ZpeoSUIflykY9rhfe-21" value="" style="endArrow=none;html=1;rounded=0;fontSize=12;startSize=8;endSize=8;curved=1;exitX=0.5;exitY=1;exitDx=0;exitDy=0;entryX=0;entryY=0.5;entryDx=0;entryDy=0;" edge="1" parent="1" source="ow3ZpeoSUIflykY9rhfe-18" target="ow3ZpeoSUIflykY9rhfe-1">
          <mxGeometry relative="1" as="geometry">
            <mxPoint x="-225" y="-91" as="sourcePoint" />
            <mxPoint x="-174" y="-74" as="targetPoint" />
          </mxGeometry>
        </mxCell>
        <mxCell id="ow3ZpeoSUIflykY9rhfe-22" value="" style="endArrow=none;html=1;rounded=0;fontSize=12;startSize=8;endSize=8;curved=1;exitX=0.44;exitY=0.975;exitDx=0;exitDy=0;exitPerimeter=0;entryX=0.5;entryY=0;entryDx=0;entryDy=0;" edge="1" parent="1" source="ow3ZpeoSUIflykY9rhfe-19" target="ow3ZpeoSUIflykY9rhfe-1">
          <mxGeometry relative="1" as="geometry">
            <mxPoint x="13" y="-1" as="sourcePoint" />
            <mxPoint x="173" y="-1" as="targetPoint" />
          </mxGeometry>
        </mxCell>
        <mxCell id="ow3ZpeoSUIflykY9rhfe-24" value="" style="endArrow=none;html=1;rounded=0;fontSize=12;startSize=8;endSize=8;curved=1;entryX=1;entryY=0;entryDx=0;entryDy=0;exitX=0.5;exitY=1;exitDx=0;exitDy=0;" edge="1" parent="1" source="ow3ZpeoSUIflykY9rhfe-20" target="ow3ZpeoSUIflykY9rhfe-1">
          <mxGeometry relative="1" as="geometry">
            <mxPoint x="-16" y="-113" as="sourcePoint" />
            <mxPoint x="173" y="-1" as="targetPoint" />
          </mxGeometry>
        </mxCell>
        <mxCell id="ow3ZpeoSUIflykY9rhfe-27" value="id_petugas" style="ellipse;whiteSpace=wrap;html=1;align=center;" vertex="1" parent="1">
          <mxGeometry x="-67" y="-167" width="100" height="40" as="geometry" />
        </mxCell>
        <mxCell id="ow3ZpeoSUIflykY9rhfe-28" value="" style="endArrow=none;html=1;rounded=0;fontSize=12;startSize=8;endSize=8;curved=1;exitX=0.5;exitY=1;exitDx=0;exitDy=0;entryX=0.192;entryY=0.317;entryDx=0;entryDy=0;entryPerimeter=0;" edge="1" parent="1" source="ow3ZpeoSUIflykY9rhfe-27" target="ow3ZpeoSUIflykY9rhfe-4">
          <mxGeometry relative="1" as="geometry">
            <mxPoint x="9" y="-14" as="sourcePoint" />
            <mxPoint x="169" y="-14" as="targetPoint" />
          </mxGeometry>
        </mxCell>
        <mxCell id="ow3ZpeoSUIflykY9rhfe-29" value="id_peminjaman" style="ellipse;whiteSpace=wrap;html=1;align=center;" vertex="1" parent="1">
          <mxGeometry x="40" y="-171" width="100" height="40" as="geometry" />
        </mxCell>
        <mxCell id="ow3ZpeoSUIflykY9rhfe-30" value="" style="endArrow=none;html=1;rounded=0;fontSize=12;startSize=8;endSize=8;curved=1;exitX=0.5;exitY=1;exitDx=0;exitDy=0;" edge="1" parent="1" source="ow3ZpeoSUIflykY9rhfe-29" target="ow3ZpeoSUIflykY9rhfe-4">
          <mxGeometry relative="1" as="geometry">
            <mxPoint x="9" y="-14" as="sourcePoint" />
            <mxPoint x="95" y="-53" as="targetPoint" />
          </mxGeometry>
        </mxCell>
        <mxCell id="ow3ZpeoSUIflykY9rhfe-31" value="id_buku" style="ellipse;whiteSpace=wrap;html=1;align=center;" vertex="1" parent="1">
          <mxGeometry x="147" y="-163" width="100" height="40" as="geometry" />
        </mxCell>
        <mxCell id="ow3ZpeoSUIflykY9rhfe-32" value="" style="endArrow=none;html=1;rounded=0;fontSize=12;startSize=8;endSize=8;curved=1;exitX=0.5;exitY=1;exitDx=0;exitDy=0;entryX=1;entryY=0;entryDx=0;entryDy=0;" edge="1" parent="1" source="ow3ZpeoSUIflykY9rhfe-31" target="ow3ZpeoSUIflykY9rhfe-4">
          <mxGeometry relative="1" as="geometry">
            <mxPoint x="9" y="-14" as="sourcePoint" />
            <mxPoint x="169" y="-14" as="targetPoint" />
          </mxGeometry>
        </mxCell>
        <mxCell id="ow3ZpeoSUIflykY9rhfe-34" value="NIS" style="ellipse;whiteSpace=wrap;html=1;align=center;" vertex="1" parent="1">
          <mxGeometry x="185" y="-102" width="100" height="40" as="geometry" />
        </mxCell>
        <mxCell id="ow3ZpeoSUIflykY9rhfe-35" value="" style="endArrow=none;html=1;rounded=0;fontSize=12;startSize=8;endSize=8;curved=1;entryX=0.4;entryY=0.95;entryDx=0;entryDy=0;entryPerimeter=0;exitX=0.917;exitY=0.4;exitDx=0;exitDy=0;exitPerimeter=0;" edge="1" parent="1" source="ow3ZpeoSUIflykY9rhfe-4" target="ow3ZpeoSUIflykY9rhfe-34">
          <mxGeometry relative="1" as="geometry">
            <mxPoint x="9" y="-14" as="sourcePoint" />
            <mxPoint x="169" y="-14" as="targetPoint" />
          </mxGeometry>
        </mxCell>
        <mxCell id="ow3ZpeoSUIflykY9rhfe-36" value="waktu_pinjam" style="ellipse;whiteSpace=wrap;html=1;align=center;" vertex="1" parent="1">
          <mxGeometry x="-126" y="-119" width="100" height="40" as="geometry" />
        </mxCell>
        <mxCell id="ow3ZpeoSUIflykY9rhfe-37" value="" style="endArrow=none;html=1;rounded=0;fontSize=12;startSize=8;endSize=8;curved=1;entryX=0.5;entryY=1;entryDx=0;entryDy=0;exitX=0.092;exitY=0.367;exitDx=0;exitDy=0;exitPerimeter=0;" edge="1" parent="1" source="ow3ZpeoSUIflykY9rhfe-4" target="ow3ZpeoSUIflykY9rhfe-36">
          <mxGeometry relative="1" as="geometry">
            <mxPoint x="36" y="-34" as="sourcePoint" />
            <mxPoint x="-14" y="-14" as="targetPoint" />
          </mxGeometry>
        </mxCell>
        <mxCell id="ow3ZpeoSUIflykY9rhfe-38" value="id_buku" style="ellipse;whiteSpace=wrap;html=1;align=center;" vertex="1" parent="1">
          <mxGeometry x="247" y="-192" width="100" height="40" as="geometry" />
        </mxCell>
        <mxCell id="ow3ZpeoSUIflykY9rhfe-39" value="&lt;span style=&quot;border-bottom: 1px dotted&quot;&gt;judul&lt;/span&gt;" style="ellipse;whiteSpace=wrap;html=1;align=center;" vertex="1" parent="1">
          <mxGeometry x="356" y="-187" width="100" height="40" as="geometry" />
        </mxCell>
        <mxCell id="ow3ZpeoSUIflykY9rhfe-40" value="jenis" style="ellipse;whiteSpace=wrap;html=1;align=center;" vertex="1" parent="1">
          <mxGeometry x="465" y="-163" width="100" height="40" as="geometry" />
        </mxCell>
        <mxCell id="ow3ZpeoSUIflykY9rhfe-41" value="penerbt" style="ellipse;whiteSpace=wrap;html=1;align=center;" vertex="1" parent="1">
          <mxGeometry x="465" y="-108" width="100" height="40" as="geometry" />
        </mxCell>
        <mxCell id="ow3ZpeoSUIflykY9rhfe-42" value="jumlah" style="ellipse;whiteSpace=wrap;html=1;align=center;" vertex="1" parent="1">
          <mxGeometry x="465" y="-52" width="100" height="40" as="geometry" />
        </mxCell>
        <mxCell id="ow3ZpeoSUIflykY9rhfe-43" value="" style="endArrow=none;html=1;rounded=0;fontSize=12;startSize=8;endSize=8;curved=1;exitX=0.5;exitY=1;exitDx=0;exitDy=0;entryX=0.4;entryY=0;entryDx=0;entryDy=0;entryPerimeter=0;" edge="1" parent="1" source="ow3ZpeoSUIflykY9rhfe-38" target="ow3ZpeoSUIflykY9rhfe-3">
          <mxGeometry relative="1" as="geometry">
            <mxPoint x="39" y="47" as="sourcePoint" />
            <mxPoint x="199" y="47" as="targetPoint" />
          </mxGeometry>
        </mxCell>
        <mxCell id="ow3ZpeoSUIflykY9rhfe-44" value="" style="endArrow=none;html=1;rounded=0;fontSize=12;startSize=8;endSize=8;curved=1;entryX=0;entryY=1;entryDx=0;entryDy=0;exitX=0.5;exitY=0;exitDx=0;exitDy=0;" edge="1" parent="1" source="ow3ZpeoSUIflykY9rhfe-3" target="ow3ZpeoSUIflykY9rhfe-39">
          <mxGeometry relative="1" as="geometry">
            <mxPoint x="39" y="47" as="sourcePoint" />
            <mxPoint x="199" y="47" as="targetPoint" />
          </mxGeometry>
        </mxCell>
        <mxCell id="ow3ZpeoSUIflykY9rhfe-45" value="" style="endArrow=none;html=1;rounded=0;fontSize=12;startSize=8;endSize=8;curved=1;entryX=0;entryY=0.5;entryDx=0;entryDy=0;exitX=0.75;exitY=0;exitDx=0;exitDy=0;" edge="1" parent="1" source="ow3ZpeoSUIflykY9rhfe-3" target="ow3ZpeoSUIflykY9rhfe-40">
          <mxGeometry relative="1" as="geometry">
            <mxPoint x="39" y="47" as="sourcePoint" />
            <mxPoint x="199" y="47" as="targetPoint" />
          </mxGeometry>
        </mxCell>
        <mxCell id="ow3ZpeoSUIflykY9rhfe-46" value="" style="endArrow=none;html=1;rounded=0;fontSize=12;startSize=8;endSize=8;curved=1;entryX=0;entryY=0.5;entryDx=0;entryDy=0;" edge="1" parent="1" target="ow3ZpeoSUIflykY9rhfe-41">
          <mxGeometry relative="1" as="geometry">
            <mxPoint x="387" y="-14" as="sourcePoint" />
            <mxPoint x="199" y="47" as="targetPoint" />
          </mxGeometry>
        </mxCell>
        <mxCell id="ow3ZpeoSUIflykY9rhfe-47" value="" style="endArrow=none;html=1;rounded=0;fontSize=12;startSize=8;endSize=8;curved=1;entryX=0;entryY=0.5;entryDx=0;entryDy=0;exitX=0.99;exitY=0.875;exitDx=0;exitDy=0;exitPerimeter=0;" edge="1" parent="1" source="ow3ZpeoSUIflykY9rhfe-3" target="ow3ZpeoSUIflykY9rhfe-42">
          <mxGeometry relative="1" as="geometry">
            <mxPoint x="39" y="47" as="sourcePoint" />
            <mxPoint x="199" y="47" as="targetPoint" />
          </mxGeometry>
        </mxCell>
        <mxCell id="ow3ZpeoSUIflykY9rhfe-48" value="id_petugas" style="ellipse;whiteSpace=wrap;html=1;align=center;" vertex="1" parent="1">
          <mxGeometry x="465" y="4" width="100" height="40" as="geometry" />
        </mxCell>
        <mxCell id="ow3ZpeoSUIflykY9rhfe-49" value="" style="endArrow=none;html=1;rounded=0;fontSize=12;startSize=8;endSize=8;curved=1;entryX=0;entryY=0.5;entryDx=0;entryDy=0;exitX=0.5;exitY=1;exitDx=0;exitDy=0;" edge="1" parent="1" source="ow3ZpeoSUIflykY9rhfe-3" target="ow3ZpeoSUIflykY9rhfe-48">
          <mxGeometry relative="1" as="geometry">
            <mxPoint x="39" y="47" as="sourcePoint" />
            <mxPoint x="199" y="47" as="targetPoint" />
          </mxGeometry>
        </mxCell>
        <mxCell id="ow3ZpeoSUIflykY9rhfe-53" value="mengelola" style="shape=rhombus;perimeter=rhombusPerimeter;whiteSpace=wrap;html=1;align=center;" vertex="1" parent="1">
          <mxGeometry x="285" y="222" width="120" height="65" as="geometry" />
        </mxCell>
        <mxCell id="ow3ZpeoSUIflykY9rhfe-58" value="" style="endArrow=none;html=1;rounded=0;fontSize=12;startSize=8;endSize=8;curved=1;entryX=0.5;entryY=1;entryDx=0;entryDy=0;exitX=0.5;exitY=0;exitDx=0;exitDy=0;" edge="1" parent="1" source="ow3ZpeoSUIflykY9rhfe-53" target="ow3ZpeoSUIflykY9rhfe-3">
          <mxGeometry relative="1" as="geometry">
            <mxPoint x="39" y="180" as="sourcePoint" />
            <mxPoint x="199" y="180" as="targetPoint" />
          </mxGeometry>
        </mxCell>
        <mxCell id="ow3ZpeoSUIflykY9rhfe-59" value="N" style="resizable=0;html=1;whiteSpace=wrap;align=right;verticalAlign=bottom;" connectable="0" vertex="1" parent="ow3ZpeoSUIflykY9rhfe-58">
          <mxGeometry x="1" relative="1" as="geometry" />
        </mxCell>
        <mxCell id="ow3ZpeoSUIflykY9rhfe-60" value="" style="endArrow=none;html=1;rounded=0;fontSize=12;startSize=8;endSize=8;curved=1;exitX=0;exitY=0.5;exitDx=0;exitDy=0;entryX=1;entryY=0.5;entryDx=0;entryDy=0;" edge="1" parent="1" source="ow3ZpeoSUIflykY9rhfe-53" target="ow3ZpeoSUIflykY9rhfe-2">
          <mxGeometry relative="1" as="geometry">
            <mxPoint x="39" y="180" as="sourcePoint" />
            <mxPoint x="72" y="186" as="targetPoint" />
          </mxGeometry>
        </mxCell>
        <mxCell id="ow3ZpeoSUIflykY9rhfe-61" value="1" style="resizable=0;html=1;whiteSpace=wrap;align=right;verticalAlign=bottom;" connectable="0" vertex="1" parent="ow3ZpeoSUIflykY9rhfe-60">
          <mxGeometry x="1" relative="1" as="geometry" />
        </mxCell>
        <mxCell id="ow3ZpeoSUIflykY9rhfe-62" value="id_petugas" style="ellipse;whiteSpace=wrap;html=1;align=center;" vertex="1" parent="1">
          <mxGeometry x="-328" y="258" width="100" height="40" as="geometry" />
        </mxCell>
        <mxCell id="ow3ZpeoSUIflykY9rhfe-63" value="nama" style="ellipse;whiteSpace=wrap;html=1;align=center;" vertex="1" parent="1">
          <mxGeometry x="-240" y="303" width="100" height="40" as="geometry" />
        </mxCell>
        <mxCell id="ow3ZpeoSUIflykY9rhfe-64" value="no_hp" style="ellipse;whiteSpace=wrap;html=1;align=center;" vertex="1" parent="1">
          <mxGeometry x="-107" y="311" width="100" height="40" as="geometry" />
        </mxCell>
        <mxCell id="ow3ZpeoSUIflykY9rhfe-65" value="" style="endArrow=none;html=1;rounded=0;fontSize=12;startSize=8;endSize=8;curved=1;exitX=1;exitY=0;exitDx=0;exitDy=0;entryX=0;entryY=0.5;entryDx=0;entryDy=0;" edge="1" parent="1" source="ow3ZpeoSUIflykY9rhfe-62" target="ow3ZpeoSUIflykY9rhfe-2">
          <mxGeometry relative="1" as="geometry">
            <mxPoint x="39" y="180" as="sourcePoint" />
            <mxPoint x="199" y="180" as="targetPoint" />
          </mxGeometry>
        </mxCell>
        <mxCell id="ow3ZpeoSUIflykY9rhfe-66" value="" style="endArrow=none;html=1;rounded=0;fontSize=12;startSize=8;endSize=8;curved=1;exitX=0.67;exitY=0;exitDx=0;exitDy=0;exitPerimeter=0;entryX=0.5;entryY=1;entryDx=0;entryDy=0;" edge="1" parent="1" source="ow3ZpeoSUIflykY9rhfe-63" target="ow3ZpeoSUIflykY9rhfe-2">
          <mxGeometry relative="1" as="geometry">
            <mxPoint x="39" y="180" as="sourcePoint" />
            <mxPoint x="199" y="180" as="targetPoint" />
          </mxGeometry>
        </mxCell>
        <mxCell id="ow3ZpeoSUIflykY9rhfe-67" value="" style="endArrow=none;html=1;rounded=0;fontSize=12;startSize=8;endSize=8;curved=1;exitX=0.5;exitY=0;exitDx=0;exitDy=0;entryX=1;entryY=1;entryDx=0;entryDy=0;" edge="1" parent="1" source="ow3ZpeoSUIflykY9rhfe-64" target="ow3ZpeoSUIflykY9rhfe-2">
          <mxGeometry relative="1" as="geometry">
            <mxPoint x="39" y="180" as="sourcePoint" />
            <mxPoint x="199" y="180" as="targetPoint" />
          </mxGeometry>
        </mxCell>
        <mxCell id="ow3ZpeoSUIflykY9rhfe-70" value="mengizinkan" style="shape=rhombus;perimeter=rhombusPerimeter;whiteSpace=wrap;html=1;align=center;" vertex="1" parent="1">
          <mxGeometry x="-90" y="92" width="120" height="60" as="geometry" />
        </mxCell>
        <mxCell id="ow3ZpeoSUIflykY9rhfe-75" value="" style="endArrow=none;html=1;rounded=0;fontSize=12;startSize=8;endSize=8;curved=1;entryX=0.5;entryY=0;entryDx=0;entryDy=0;exitX=0.339;exitY=0.861;exitDx=0;exitDy=0;exitPerimeter=0;" edge="1" parent="1" source="ow3ZpeoSUIflykY9rhfe-70" target="ow3ZpeoSUIflykY9rhfe-2">
          <mxGeometry relative="1" as="geometry">
            <mxPoint x="39" y="47" as="sourcePoint" />
            <mxPoint x="199" y="47" as="targetPoint" />
          </mxGeometry>
        </mxCell>
        <mxCell id="ow3ZpeoSUIflykY9rhfe-76" value="1" style="resizable=0;html=1;whiteSpace=wrap;align=right;verticalAlign=bottom;" connectable="0" vertex="1" parent="ow3ZpeoSUIflykY9rhfe-75">
          <mxGeometry x="1" relative="1" as="geometry" />
        </mxCell>
        <mxCell id="ow3ZpeoSUIflykY9rhfe-77" value="" style="endArrow=none;html=1;rounded=0;fontSize=12;startSize=8;endSize=8;curved=1;exitX=0.683;exitY=0.106;exitDx=0;exitDy=0;exitPerimeter=0;entryX=0.339;entryY=0.906;entryDx=0;entryDy=0;entryPerimeter=0;" edge="1" parent="1" source="ow3ZpeoSUIflykY9rhfe-70" target="ow3ZpeoSUIflykY9rhfe-4">
          <mxGeometry relative="1" as="geometry">
            <mxPoint x="39" y="47" as="sourcePoint" />
            <mxPoint x="199" y="47" as="targetPoint" />
          </mxGeometry>
        </mxCell>
        <mxCell id="ow3ZpeoSUIflykY9rhfe-78" value="N" style="resizable=0;html=1;whiteSpace=wrap;align=right;verticalAlign=bottom;" connectable="0" vertex="1" parent="ow3ZpeoSUIflykY9rhfe-77">
          <mxGeometry x="1" relative="1" as="geometry" />
        </mxCell>
      </root>
    </mxGraphModel>
  </diagram>
  <diagram id="-PjXsEMgD7E_PfIpvNnG" name="Page-2">
    <mxGraphModel dx="1420" dy="1103" grid="0" gridSize="10" guides="1" tooltips="1" connect="1" arrows="1" fold="1" page="0" pageScale="1" pageWidth="850" pageHeight="1100" math="0" shadow="0">
      <root>
        <mxCell id="0" />
        <mxCell id="1" parent="0" />
        <mxCell id="X3_PfMZUeh2CmMAYmyCi-1" value="Entity" style="whiteSpace=wrap;html=1;align=center;" vertex="1" parent="1">
          <mxGeometry x="-143" y="-170" width="100" height="40" as="geometry" />
        </mxCell>
        <mxCell id="X3_PfMZUeh2CmMAYmyCi-2" value="Entity" style="whiteSpace=wrap;html=1;align=center;" vertex="1" parent="1">
          <mxGeometry x="374" y="-185" width="100" height="40" as="geometry" />
        </mxCell>
        <mxCell id="X3_PfMZUeh2CmMAYmyCi-3" value="Entity" style="whiteSpace=wrap;html=1;align=center;" vertex="1" parent="1">
          <mxGeometry x="-143" y="-10" width="100" height="40" as="geometry" />
        </mxCell>
        <mxCell id="X3_PfMZUeh2CmMAYmyCi-4" value="Entity" style="whiteSpace=wrap;html=1;align=center;" vertex="1" parent="1">
          <mxGeometry x="379" y="-17" width="100" height="40" as="geometry" />
        </mxCell>
        <mxCell id="X3_PfMZUeh2CmMAYmyCi-5" value="Entity" style="whiteSpace=wrap;html=1;align=center;" vertex="1" parent="1">
          <mxGeometry x="-146" y="131" width="100" height="40" as="geometry" />
        </mxCell>
        <mxCell id="X3_PfMZUeh2CmMAYmyCi-6" value="Entity" style="whiteSpace=wrap;html=1;align=center;" vertex="1" parent="1">
          <mxGeometry x="382" y="133" width="100" height="40" as="geometry" />
        </mxCell>
      </root>
    </mxGraphModel>
  </diagram>
</mxfile>
